GIL02_slow1_RRA_states
nRows=5
nColumns=47

# SIMM Motion File Header:
name GIL02_slow1_RRA_states
datacolumns 47
datarows 5
otherdata 1
range 0.75733000000000050000 0.75933000000000050000
endheader
time	pelvis_tx	pelvis_ty	pelvis_tz	pelvis_tilt	pelvis_list	pelvis_rotation	hip_flexion_r	hip_adduction_r	hip_rotation_r	knee_angle_r	ankle_angle_r	subtalar_angle_r	mtp_angle_r	hip_flexion_l	hip_adduction_l	hip_rotation_l	knee_angle_l	ankle_angle_l	subtalar_angle_l	mtp_angle_l	lumbar_extension	lumbar_bending	lumbar_rotation	pelvis_tx_u	pelvis_ty_u	pelvis_tz_u	pelvis_tilt_u	pelvis_list_u	pelvis_rotation_u	hip_flexion_r_u	hip_adduction_r_u	hip_rotation_r_u	knee_angle_r_u	ankle_angle_r_u	subtalar_angle_r_u	mtp_angle_r_u	hip_flexion_l_u	hip_adduction_l_u	hip_rotation_l_u	knee_angle_l_u	ankle_angle_l_u	subtalar_angle_l_u	mtp_angle_l_u	lumbar_extension_u	lumbar_bending_u	lumbar_rotation_u
      0.75733000000000050000	      1.12194311274382770000	      0.93606812859144206000	     -0.19864596237287749000	      0.36823908374201098000	      6.60896133522387700000	     -3.40686477301321490000	    -12.99243969564719400000	     -5.76629421473511080000	     10.64057227588473300000	    -15.87539824734261100000	     12.97553958327055500000	     -0.00000000000011202759	      0.00000000000006136634	     15.96653902815443600000	      7.72463466260996420000	      2.16399657699987370000	     -2.89703923101676790000	    -11.22396632773946700000	      0.00000000000000679217	     -0.00000000000001934547	     -2.02179804655969560000	     -6.60942682228403820000	      8.18490605887333440000	      0.89629870357465691000	      0.14301883008078645000	     -0.14661817636632724000	      2.39812943930553280000	     33.73682548886213100000	      3.81836806755185560000	     15.84211062448677700000	    -53.70906138886660800000	    -42.97364452890663200000	   -127.00646273561898000000	   -102.94283467880882000000	     -0.00000000000099623737	      0.00000000000000692417	    -59.37422227726157300000	     53.25604995191335400000	    124.18155523516734000000	      5.26651514961676790000	     61.18809551081384500000	      0.00000000000003656812	     -0.00000000000003951182	      9.83095295273738930000	    -40.65993615071797500000	    -15.82020309124972500000
      0.75783000000000045000	      1.12239126746740840000	      0.93613975588288256000	     -0.19871939996811325000	      0.36941595344250205000	      6.62578011885907170000	     -3.40493681691821370000	    -12.98435882265977000000	     -5.79312928113139060000	     10.61896542054385700000	    -15.93910635721817600000	     12.92378921781535600000	     -0.00000000000011252742	      0.00000000000006137965	     15.93686005477286300000	      7.75121848996866180000	      2.22605940736728950000	     -2.89443533908507520000	    -11.19322994443232500000	      0.00000000000000681105	     -0.00000000000001936263	     -2.01686369468173600000	     -6.62968143110548170000	      8.17697786876173540000	      0.89631984245869634000	      0.14348789413606997000	     -0.14713102991284752000	      2.30902972207727860000	     33.53768390494138200000	      3.89307972891732090000	     16.48217884834359000000	    -53.63067559036191100000	    -43.45386811295942700000	   -127.82621783197256000000	   -104.06163979421200000000	     -0.00000000000099053178	      0.00000000000002211850	    -59.34124747433537600000	     53.07834815168661200000	    124.06626574222859000000	      5.14895796994212510000	     61.75534725652413900000	      0.00000000000003492371	     -0.00000000000002244426	      9.90691830469337380000	    -40.35787184901805300000	    -15.89186188863751800000
      0.75833000000000050000	      1.12283943223884020000	      0.93621161404509834000	     -0.19879309223606623000	      0.37054779368232810000	      6.64249839724364840000	     -3.40297206877839950000	    -12.97595672171788200000	     -5.81992436965964190000	     10.59711831731900300000	    -16.00322469608251200000	     12.87147475189839900000	     -0.00000000000011302536	      0.00000000000006139524	     15.90719820428703100000	      7.77771210683406530000	      2.28805936136215450000	     -2.89189036630377630000	    -11.16221304411671900000	      0.00000000000000682925	     -0.00000000000001937395	     -2.01189066377521230000	     -6.64978406972122650000	      8.16901489143094390000	      0.89633889664451294000	      0.14394231491285250000	     -0.14763688255988769000	      2.21801145928783730000	     33.33481136353687900000	      3.96553837117500940000	     17.12701670087216100000	    -53.54916600003863200000	    -43.93463368533492300000	   -128.64735734474880000000	   -105.19959258077851000000	     -0.00000000000100167957	      0.00000000000002776010	    -59.30573112369426500000	     52.89522313389070300000	    123.93008846974514000000	      5.03084154043594540000	     62.31021583722510800000	      0.00000000000004362082	     -0.00000000000002186985	      9.98567040110112640000	    -40.05206157395008400000	    -15.95935397199368600000
      0.75883000000000045000	      1.12328760600744240000	      0.93628369575466264000	     -0.19886703566140260000	      0.37163364799136761000	      6.65911431431719420000	     -3.40097165796924730000	    -12.96723101835237700000	     -5.84667793323359850000	     10.57503071608728000000	    -16.06775393303192700000	     12.81858640618672900000	     -0.00000000000011352602	      0.00000000000006140187	     15.87755474410879400000	      7.80411281514613900000	      2.34998600629604180000	     -2.88940457943911520000	    -11.13092179616998400000	      0.00000000000000685376	     -0.00000000000001938538	     -2.00687756296589900000	     -6.66973287911228050000	      8.16101921130107580000	      0.89635581117347995000	      0.14438207650255075000	     -0.14813559902825871000	      2.12509189346493390000	     33.12824370908673900000	      4.03572045518223190000	     17.77657927671134200000	    -53.46457316133680100000	    -44.41582316480737100000	   -129.46980658759969000000	   -106.35685774586194000000	     -0.00000000000099268361	     -0.00000000000001378229	    -59.26769211854700400000	     52.70671067708286700000	    123.77297426789391000000	      4.91223394391582600000	     62.85267791185545900000	      0.00000000000005079563	     -0.00000000000001542458	     10.06719023441500300000	    -39.74257035805323600000	    -16.02266698554917200000
      0.75933000000000050000	      1.12373578768433660000	      0.93635599367659883000	     -0.19894122662358693000	      0.37267257172533724000	      6.67562603138886960000	     -3.39893673138304700000	    -12.95817936285095800000	     -5.87338843592529790000	     10.55270244368732200000	    -16.13269470810020300000	     12.76511464994513500000	     -0.00000000000011401934	      0.00000000000006140723	     15.84793092926509700000	      7.83041792588886040000	      2.41182883858361660000	     -2.88697820269129620000	    -11.09936243995525900000	      0.00000000000000688378	     -0.00000000000001939702	     -2.00182301561444300000	     -6.68952603779850730000	      8.15299292265837040000	      0.89637053162345681000	      0.14480716765000196000	     -0.14862704584436937000	      2.03028936080504960000	     32.91801897461786600000	      4.10360413698975980000	     18.43081850928451000000	    -53.37693906916371100000	    -44.89731476837647500000	   -130.29348717932160000000	   -107.53358635318158000000	     -0.00000000000100579428	      0.00000000000007738555	    -59.22715058420046600000	     52.51284873061570100000	    123.59487785332828000000	      4.79320439705224110000	     63.38269650312085400000	      0.00000000000007580761	     -0.00000000000003830954	     10.15145749604632600000	    -39.42946590384559600000	    -16.08179069692265300000
